<?xml version="1.0" standalone="no"?>
<!DOCTYPE svg PUBLIC "-//W3C//DTD SVG 20010904//EN"
 "http://www.w3.org/TR/2001/REC-SVG-20010904/DTD/svg10.dtd">
<svg version="1.0" xmlns="http://www.w3.org/2000/svg"
 width="174.000000pt" height="189.000000pt" viewBox="0 0 174.000000 189.000000"
 preserveAspectRatio="xMidYMid meet">
<metadata>
Created by potrace 1.16, written by Peter Selinger 2001-2019
</metadata>
<g transform="translate(0.000000,189.000000) scale(0.100000,-0.100000)"
fill="#000000" stroke="none">
<path d="M247 1740 c-46 -14 -93 -56 -116 -103 -21 -43 -21 -53 -21 -693 l0
-649 23 -40 c12 -21 41 -53 65 -69 40 -28 51 -31 148 -34 118 -5 104 -17 107
93 l2 50 -87 3 c-57 2 -90 7 -97 16 -16 19 -16 1253 0 1272 9 11 64 14 275 14
l264 0 0 -146 0 -146 29 -29 29 -29 146 0 146 0 0 -225 0 -226 73 3 72 3 -2
258 c-2 208 -6 265 -18 291 -23 47 -343 362 -387 381 -31 12 -87 15 -330 14
-161 0 -306 -5 -321 -9z"/>
<path d="M627 637 c-16 -11 -17 -35 -15 -242 l3 -230 28 -9 c44 -16 62 10 59
84 l-3 60 46 0 c60 0 103 19 142 63 79 90 36 246 -75 277 -52 14 -165 13 -185
-3z m178 -112 c51 -50 13 -125 -63 -125 l-39 0 0 75 -1 75 39 0 c29 0 47 -7
64 -25z"/>
<path d="M1028 640 c-16 -10 -18 -33 -18 -240 0 -270 -7 -255 122 -248 88 5
119 21 153 79 17 29 20 52 20 169 0 117 -3 140 -20 169 -35 60 -67 76 -158 79
-46 1 -90 -2 -99 -8z m166 -112 c12 -17 16 -49 16 -128 0 -127 -11 -150 -69
-150 l-38 0 -1 150 -1 150 39 0 c29 0 43 -6 54 -22z"/>
<path d="M1427 638 c-16 -12 -17 -33 -15 -243 l3 -230 29 -10 c45 -16 61 13
60 111 l0 79 65 5 c57 4 67 8 78 30 10 20 10 29 -1 45 -11 16 -26 21 -80 23
l-67 3 2 47 3 47 64 5 c77 6 100 27 79 70 -12 24 -18 25 -107 28 -66 2 -101
-1 -113 -10z"/>
</g>
</svg>
